# xmcd
#
# Track frame offsets:
#	150
#	9384
#	17336
#	27741
#	37939
#	49029
#	60653
#	70272
#	83410
#	94092
#	104610
#	113604
#	121707
#	131779
#	142560
#	151115
#	163074
#	173608
#	183376
#	193751
#	203139
#	212379
#	221766
#	229981
#	241508
#	249596
#	259537
#	272844
#	283695
#	295637
#
# Disc length: 4063 seconds
#
# Revision: 1
# Processed by: cddbd v1.5.2PL0 Copyright (c) Steve Scherf et al.
# Submitted via: audiograbber 1.83.01
#
DISCID=920fdd1e
DTITLE=Maria Dallas - The Best Of Maria Dallas
DYEAR=2017
DGENRE=Country
TTITLE0=Tumblin' Down (USA Version)
TTITLE1=Pinocchio
TTITLE2=Handy Man
TTITLE3=Ambush
TTITLE4=It's Such A Pretty World Today
TTITLE5=Rose Garden
TTITLE6=Things Go Better With Love
TTITLE7=I Love Your Kind Of Loving
TTITLE8=The Music Turns Me On
TTITLE9=Queen Of The House
TTITLE10=Tonight I'm Coming Home
TTITLE11=Changing All Those Changes
TTITLE12=When I Get Through With You
TTITLE13=I Don't Have A Penny
TTITLE14=You Can't Roller Skate In A Buffalo Herd
TTITLE15=Rustle Your Bustle
TTITLE16=That's All This Old World Needs
TTITLE17=Try A Little Kindness
TTITLE18=Lonely For You
TTITLE19=Did You Ever
TTITLE20=A Little Bit Of Loving
TTITLE21=You Don't Treat Me Right
TTITLE22=Too Many Tears
TTITLE23=Don't Love Me Too Much
TTITLE24=You Make Me Feel Good
TTITLE25=Life's Carousel
TTITLE26=Pudd-An-Tame (with Howard Morrison)
TTITLE27=Everybody
TTITLE28=Umm Bala Bomba
TTITLE29=Tumblin' Down (NZ Version)
EXTD=
EXTT0=
EXTT1=
EXTT2=
EXTT3=
EXTT4=
EXTT5=
EXTT6=
EXTT7=
EXTT8=
EXTT9=
EXTT10=
EXTT11=
EXTT12=
EXTT13=
EXTT14=
EXTT15=
EXTT16=
EXTT17=
EXTT18=
EXTT19=
EXTT20=
EXTT21=
EXTT22=
EXTT23=
EXTT24=
EXTT25=
EXTT26=
EXTT27=
EXTT28=
EXTT29=
PLAYORDER=
